<?xml version="1.0" encoding="UTF-8" standalone="no"?>
<svg width="231px" height="71px" viewBox="0 0 231 71" version="1.1" xmlns="http://www.w3.org/2000/svg" xmlns:xlink="http://www.w3.org/1999/xlink" xmlns:sketch="http://www.bohemiancoding.com/sketch/ns">
    <!-- Generator: Sketch 3.0.4 (8053) - http://www.bohemiancoding.com/sketch -->
    <title>Group</title>
    <desc>Created with Sketch.</desc>
    <defs>
        <linearGradient x1="50%" y1="0%" x2="50%" y2="100%" id="linearGradient-1">
            <stop stop-color="#EFEFEF" offset="0%"></stop>
            <stop stop-color="#A8A8A8" offset="100%"></stop>
        </linearGradient>
        <linearGradient x1="50%" y1="0%" x2="50%" y2="100%" id="linearGradient-2">
            <stop stop-color="#FBFBFB" offset="0%"></stop>
            <stop stop-color="#DFDFDF" offset="100%"></stop>
        </linearGradient>
        <linearGradient x1="-0.000581540251%" y1="49.9961157%" x2="100.000328%" y2="49.9961157%" id="linearGradient-3">
            <stop stop-color="#EC6608" offset="0%"></stop>
            <stop stop-color="#F9B000" offset="100%"></stop>
        </linearGradient>
        <linearGradient x1="0.000872201686%" y1="49.997914%" x2="99.9974332%" y2="49.997914%" id="linearGradient-4">
            <stop stop-color="#FFED00" offset="0%"></stop>
            <stop stop-color="#BCCF00" offset="100%"></stop>
        </linearGradient>
        <linearGradient x1="-0.00336448598%" y1="50.0000641%" x2="99.9974455%" y2="50.0000641%" id="linearGradient-5">
            <stop stop-color="#EC6608" offset="0%"></stop>
            <stop stop-color="#C8D400" offset="100%"></stop>
        </linearGradient>
        <linearGradient x1="-0.00298747558%" y1="49.9977699%" x2="99.9984488%" y2="49.9977699%" id="linearGradient-6">
            <stop stop-color="#E40428" offset="0%"></stop>
            <stop stop-color="#EC6608" offset="100%"></stop>
        </linearGradient>
        <linearGradient x1="-0.000444066166%" y1="49.9987052%" x2="100.001173%" y2="49.9987052%" id="linearGradient-7">
            <stop stop-color="#B70E0C" offset="0%"></stop>
            <stop stop-color="#C80973" offset="100%"></stop>
        </linearGradient>
        <linearGradient x1="-0.000344669118%" y1="49.9998561%" x2="100.000821%" y2="49.9998561%" id="linearGradient-8">
            <stop stop-color="#65B32E" offset="0%"></stop>
            <stop stop-color="#C8D400" offset="100%"></stop>
        </linearGradient>
        <linearGradient x1="0.00118417644%" y1="50.0012947%" x2="99.9991896%" y2="50.0012947%" id="linearGradient-9">
            <stop stop-color="#0081A7" offset="0%"></stop>
            <stop stop-color="#76B82A" offset="100%"></stop>
        </linearGradient>
        <linearGradient x1="-0.000344708721%" y1="49.9956121%" x2="100.001092%" y2="49.9956121%" id="linearGradient-10">
            <stop stop-color="#76B82A" offset="0%"></stop>
            <stop stop-color="#0081A7" offset="100%"></stop>
        </linearGradient>
        <linearGradient x1="0.00095522884%" y1="50.0002563%" x2="99.9974167%" y2="50.0002563%" id="linearGradient-11">
            <stop stop-color="#C80973" offset="0%"></stop>
            <stop stop-color="#007BC4" offset="100%"></stop>
        </linearGradient>
        <linearGradient x1="-0.00191085448%" y1="50.0006474%" x2="99.9990944%" y2="50.0006474%" id="linearGradient-12">
            <stop stop-color="#213A8F" offset="0%"></stop>
            <stop stop-color="#009FE3" offset="100%"></stop>
        </linearGradient>
        <linearGradient x1="-0.000930752048%" y1="49.997561%" x2="100.000382%" y2="49.997561%" id="linearGradient-13">
            <stop stop-color="#831F82" offset="0%"></stop>
            <stop stop-color="#5C2483" offset="100%"></stop>
        </linearGradient>
        <linearGradient x1="-0.000290733896%" y1="49.9999005%" x2="100.000324%" y2="49.9999005%" id="linearGradient-14">
            <stop stop-color="#831F82" offset="0%"></stop>
            <stop stop-color="#5C2483" offset="100%"></stop>
        </linearGradient>
        <linearGradient x1="-0.0018275461%" y1="49.9987049%" x2="99.9988869%" y2="49.9987049%" id="linearGradient-15">
            <stop stop-color="#C8D400" offset="0%"></stop>
            <stop stop-color="#65B32E" offset="100%"></stop>
        </linearGradient>
        <linearGradient x1="-0.00126393198%" y1="49.9978112%" x2="100.000172%" y2="49.9978112%" id="linearGradient-16">
            <stop stop-color="#FDC300" offset="0%"></stop>
            <stop stop-color="#FFD500" offset="100%"></stop>
        </linearGradient>
        <linearGradient x1="-0.003274921%" y1="50.0049736%" x2="99.9982936%" y2="50.0049736%" id="linearGradient-17">
            <stop stop-color="#EF7D00" offset="0%"></stop>
            <stop stop-color="#FFD500" offset="100%"></stop>
        </linearGradient>
        <linearGradient x1="-0.000344768144%" y1="50.0035824%" x2="100.001494%" y2="50.0035824%" id="linearGradient-18">
            <stop stop-color="#BCCF00" offset="0%"></stop>
            <stop stop-color="#FFED00" offset="100%"></stop>
        </linearGradient>
        <linearGradient x1="-0.00224086417%" y1="49.9971141%" x2="99.9994656%" y2="49.9971141%" id="linearGradient-19">
            <stop stop-color="#C8D400" offset="0%"></stop>
            <stop stop-color="#A2C617" offset="100%"></stop>
        </linearGradient>
        <linearGradient x1="-0.000344708721%" y1="50.0004974%" x2="100.001092%" y2="50.0004974%" id="linearGradient-20">
            <stop stop-color="#213A8F" offset="0%"></stop>
            <stop stop-color="#009FE3" offset="100%"></stop>
        </linearGradient>
        <linearGradient x1="0.00178119972%" y1="50.0018907%" x2="100.003488%" y2="50.0018907%" id="linearGradient-21">
            <stop stop-color="#E50071" offset="0%"></stop>
            <stop stop-color="#831F82" offset="100%"></stop>
        </linearGradient>
        <linearGradient x1="-343.173566%" y1="49.9956445%" x2="367.849985%" y2="49.9956445%" id="linearGradient-22">
            <stop stop-color="#E94190" offset="0%"></stop>
            <stop stop-color="#A71680" offset="100%"></stop>
        </linearGradient>
    </defs>
    <g id="Page-1" stroke="none" stroke-width="1" fill="none" fill-rule="evenodd" sketch:type="MSPage">
        <g id="Group" sketch:type="MSLayerGroup">
            <rect id="Rectangle-1" fill="url(#linearGradient-1)" sketch:type="MSShapeGroup" x="1" y="1" width="230" height="70" rx="4"></rect>
            <rect id="Rectangle-2" fill="url(#linearGradient-2)" sketch:type="MSShapeGroup" x="0" y="0" width="230" height="70" rx="4"></rect>
            <g transform="translate(24.000000, 10.000000)" sketch:type="MSShapeGroup">
                <path d="M8.56187063,11.4470155 C8.05522727,11.4470155 7.61332168,11.7161915 7.37648601,12.1156392 L7.37648601,12.1156392 L3.72181818,10.0552266 C3.83842657,9.85942657 3.90718531,9.63105862 3.90718531,9.38738765 L3.90718531,9.38738765 C3.90718531,9.14371669 3.83842657,8.91574111 3.72262238,8.71915632 L3.72262238,8.71915632 L7.37648601,6.66070562 C7.61332168,7.06054574 8.05482517,7.32932934 8.56187063,7.32932934 L8.56187063,7.32932934 C9.06931818,7.32932934 9.51041958,7.06054574 9.74805944,6.66109801 L9.74805944,6.66109801 L13.4019231,8.72111825 C13.2849126,8.91770304 13.2173601,9.14567861 13.2173601,9.38934958 L13.2173601,9.38934958 C13.2173601,9.63223577 13.2849126,9.86060373 13.4019231,10.0571885 L13.4019231,10.0571885 L12.4292483,10.6049577 C12.2161364,10.2471028 12.0922902,9.83235202 12.0922902,9.38934958 L12.0922902,9.38934958 C12.0922902,9.18177801 12.1220455,8.98126938 12.1727098,8.78860843 L12.1727098,8.78860843 L10.3025524,7.73427046 C9.8526049,8.16236228 9.2386014,8.42761441 8.56187063,8.42761441 L8.56187063,8.42761441 C7.88554196,8.42761441 7.27234266,8.16236228 6.8227972,7.73466284 L6.8227972,7.73466284 L4.95263986,8.7893932 C5.0020979,8.98126938 5.03185315,9.18099324 5.03185315,9.38738765 L5.03185315,9.38738765 C5.03185315,9.59613637 5.0016958,9.79703739 4.95062937,9.99126787 L4.95062937,9.99126787 L6.82038462,11.0440363 C7.26993007,10.6147673 7.88433566,10.3487304 8.56187063,10.3487304 L8.56187063,10.3487304 C9.48388112,10.3487304 10.288479,10.8411734 10.7203322,11.5674776 L10.7203322,11.5674776 L9.74805944,12.1156392 C9.51041958,11.7161915 9.06931818,11.4470155 8.56187063,11.4470155" id="path144" fill="url(#linearGradient-3)" transform="translate(8.546993, 9.407399) scale(1, -1) translate(-8.546993, -9.407399) "></path>
                <path d="M14.5873077,8.04857069 C14.0798601,8.04857069 13.6375524,8.31853144 13.4007168,8.71797917 L13.4007168,8.71797917 L12.4288462,8.17060236 C12.7513287,7.62871894 13.2808916,7.21749967 13.9125874,7.04406558 L13.9125874,7.04406558 L13.9125874,4.93774393 C13.2812937,4.76470223 12.7521329,4.35387534 12.4292483,3.81199192 L12.4292483,3.81199192 L13.4019231,3.26422273 C13.6387587,3.66406285 14.0802622,3.93284644 14.5873077,3.93284644 L14.5873077,3.93284644 C15.0947552,3.93284644 15.5362587,3.66406285 15.7730944,3.2650075 L15.7730944,3.2650075 L16.7457692,3.81277669 C16.4228846,4.35387534 15.8933217,4.76470223 15.2624301,4.93774393 L15.2624301,4.93774393 L15.2624301,7.04406558 C15.8941259,7.21749967 16.424493,7.62871894 16.7469755,8.17099475 L16.7469755,8.17099475 L15.7743007,8.71915632 C15.5378671,8.31853144 15.0951573,8.04857069 14.5873077,8.04857069 L14.5873077,8.04857069 Z M18.1181294,5.99090476 C18.1181294,5.54868708 18.2419755,5.13393634 18.4542832,4.77608139 L18.4542832,4.77608139 L19.4265559,5.32424297 C19.3103497,5.52004299 19.2431993,5.74801856 19.2431993,5.99090476 L19.2431993,5.99090476 C19.2431993,6.23536049 19.3111538,6.46294368 19.4285664,6.66070562 L19.4285664,6.66070562 L18.4554895,7.20847481 C18.2419755,6.85022749 18.1181294,6.43429959 18.1181294,5.99090476 L18.1181294,5.99090476 Z M9.74725524,6.65913608 C9.86426573,6.46215891 9.93262238,6.23457572 9.93262238,5.99090476 L9.93262238,5.99090476 C9.93262238,5.74723379 9.86426573,5.51925822 9.74805944,5.32267343 L9.74805944,5.32267343 L10.7203322,4.77529662 C10.933042,5.13354395 11.0572902,5.54790231 11.0572902,5.99090476 L11.0572902,5.99090476 C11.0572902,6.43429959 10.933042,6.84944272 10.7203322,7.20769005 L10.7203322,7.20769005 L9.74725524,6.65913608 L9.74725524,6.65913608 Z" id="path164" fill="url(#linearGradient-4)" transform="translate(14.572430, 6.010916) scale(1, -1) translate(-14.572430, -6.010916) "></path>
                <path d="M14.5873077,15.3932295 C14.0802622,15.3932295 13.6387587,15.6620131 13.4019231,16.0618532 L13.4019231,16.0618532 L9.74805944,14.001833 C9.86426573,13.8048558 9.93262238,13.5772726 9.93262238,13.3336017 L9.93262238,13.3336017 C9.93262238,13.0899307 9.86466783,12.8615627 9.74805944,12.6653703 L9.74805944,12.6653703 L10.7203322,12.1172088 C10.9334441,12.4754561 11.0572902,12.8898144 11.0572902,13.3336017 L11.0572902,13.3336017 C11.0572902,13.5411732 11.0279371,13.7412895 10.9772727,13.9347352 L10.9772727,13.9347352 L12.8474301,14.9882884 C13.1417657,14.708518 13.5060664,14.5001617 13.9125874,14.3879396 L13.9125874,14.3879396 L13.9129895,10.3193016 L13.9117832,10.3193016 L14.5873077,9.93868831 L15.2632343,10.3193016 L15.2628322,10.3200863 L15.2624301,14.3879396 C15.8937238,14.5613737 16.4232867,14.9722006 16.7461713,15.5136917 L16.7461713,15.5136917 L15.7734965,16.0618532 C15.5362587,15.6620131 15.0947552,15.3932295 14.5873077,15.3932295 M18.1181294,13.3375255 C18.1181294,12.8933459 18.2423776,12.477418 18.4558916,12.1195631 L18.4558916,12.1195631 L19.4285664,12.6677246 C19.3111538,12.8647018 19.2431993,13.0930698 19.2431993,13.3375255 L19.2431993,13.3375255 C19.2431993,13.5804117 19.3103497,13.8072101 19.4261538,14.0034025 L19.4261538,14.0034025 L18.4538811,14.5515641 C18.2419755,14.1933168 18.1181294,13.7797432 18.1181294,13.3375255" id="path184" fill="url(#linearGradient-5)" transform="translate(14.573234, 13.077767) scale(1, -1) translate(-14.573234, -13.077767) "></path>
                <path d="M2.53603147,14.8419289 C2.02938811,14.8419289 1.58788462,15.1118896 1.35064685,15.5113373 L1.35064685,15.5113373 L0.378776224,14.9631758 C0.700856643,14.4212923 1.23041958,14.0116426 1.86171329,13.8374238 L1.86171329,13.8374238 L1.86171329,11.7322793 C1.22961538,11.5580604 0.69965035,11.1468411 0.37756993,10.6045653 L0.37756993,10.6045653 L1.34944056,10.0567961 C1.58708042,10.4566363 2.02898601,10.7273818 2.53603147,10.7273818 L2.53603147,10.7273818 C3.04388112,10.7273818 3.48618881,10.4566363 3.72262238,10.0567961 L3.72262238,10.0567961 L4.6952972,10.6045653 C4.37281469,11.1472335 3.84284965,11.5580604 3.21115385,11.7322793 L3.21115385,11.7322793 L3.21115385,13.8374238 C3.61847902,13.9492534 3.98438811,14.1583945 4.27912587,14.4397344 L4.27912587,14.4397344 L6.14727273,13.3861812 C6.09701049,13.1935203 6.06725524,12.9926193 6.06725524,12.7850477 L6.06725524,12.7850477 C6.06725524,12.3412605 6.1906993,11.9269021 6.40421329,11.56787 L6.40421329,11.56787 L7.37648601,12.1168164 C7.25987762,12.3130088 7.19192308,12.540592 7.19192308,12.7850477 L7.19192308,12.7850477 C7.19192308,13.0279339 7.25987762,13.2555171 7.37648601,13.4528866 L7.37648601,13.4528866 L3.72262238,15.5113373 C3.48538462,15.1118896 3.04347902,14.8419289 2.53603147,14.8419289" id="path204" fill="url(#linearGradient-6)" transform="translate(3.795402, 12.803490) scale(1, -1) translate(-3.795402, -12.803490) "></path>
                <path d="M8.56187063,18.2372346 C8.05522727,18.2372346 7.61332168,18.5064106 7.37648601,18.9066431 L7.37648601,18.9066431 L6.40421329,18.3576967 C6.83606643,17.6313925 7.64066434,17.1393419 8.56187063,17.1393419 L8.56187063,17.1393419 C9.48388112,17.1393419 10.288479,17.6313925 10.7203322,18.3584815 L10.7203322,18.3584815 L9.74805944,18.9066431 C9.51082168,18.5064106 9.06931818,18.2372346 8.56187063,18.2372346 L8.56187063,18.2372346 Z M3.72262238,16.8466228 C3.83882867,16.6504304 3.90718531,16.4228473 3.90718531,16.1799611 L3.90718531,16.1799611 C3.90718531,15.9351129 3.83842657,15.7071374 3.72141608,15.5101602 L3.72141608,15.5101602 L4.69409091,14.9619986 C4.9076049,15.3206383 5.03185315,15.7361738 5.03185315,16.1799611 L5.03185315,16.1799611 C5.03185315,16.6229635 4.90800699,17.0365371 4.6952972,17.394392 L4.6952972,17.394392 L3.72262238,16.8466228 L3.72262238,16.8466228 Z M10.3025524,14.5256667 C9.8526049,14.9545433 9.2386014,15.219403 8.56187063,15.219403 L8.56187063,15.219403 C7.63945804,15.219403 6.83445804,14.7273525 6.4026049,13.9998711 L6.4026049,13.9998711 L7.37568182,13.4517095 C7.61251748,13.8515496 8.05442308,14.1222951 8.56187063,14.1222951 L8.56187063,14.1222951 C9.06972028,14.1222951 9.51162587,13.8523344 9.74846154,13.4521019 L9.74846154,13.4521019 L14.5873077,16.1799611 L13.9117832,16.5605743 L10.3025524,14.5256667 L10.3025524,14.5256667 Z" id="path224" fill="url(#linearGradient-7)" transform="translate(9.149738, 16.198403) scale(1, -1) translate(-9.149738, -16.198403) "></path>
                <path d="M1.16624476,16.2993245 C1.16624476,16.5422107 1.2333951,16.7697939 1.3496014,16.9659863 L0.377328671,17.5141479 C0.165020979,17.1562929 0.0411748252,16.742327 0.0411748252,16.2993245 C0.0411748252,15.8555373 0.165825175,15.4403942 0.379339161,15.0809697 L1.35201399,15.6295236 C1.2346014,15.8265008 1.16624476,16.0548688 1.16624476,16.2993245" id="path236" fill="#B70E0C" transform="translate(0.644322, 16.258124) scale(1, -1) translate(-0.644322, -16.258124) "></path>
                <path d="M2.53627273,20.5367273 C3.45747902,20.5367273 4.26167483,21.0272083 4.69393007,21.753905 L3.72125524,22.3024589 C3.48401748,21.9030112 3.04331818,21.6342276 2.53627273,21.6342276 C2.03003147,21.6342276 1.58933217,21.9030112 1.35209441,22.3016742 L0.37941958,21.753905 C0.811674825,21.0272083 1.61546853,20.5367273 2.53627273,20.5367273 M7.37712937,18.9067608 L3.72366783,16.8475253 C3.48723427,17.2481502 3.04492657,17.5196805 2.53627273,17.5196805 C2.02802098,17.5196805 1.58571329,17.2481502 1.34887762,16.8475253 L0.376202797,17.3952945 C0.807653846,18.1243455 1.61345804,18.6167884 2.53627273,18.6167884 C3.21340559,18.6167884 3.82700699,18.3519287 4.27695455,17.9234445 L6.14670979,18.9762129 C6.09644755,19.1688738 6.06709441,19.3693825 6.06709441,19.5765617 C6.06709441,20.0195641 6.19053846,20.4331377 6.40244406,20.7909926 L7.37552098,20.2432235 C7.25931469,20.047031 7.19176224,19.8202326 7.19176224,19.5765617 C7.19176224,19.3321059 7.26011888,19.1045227 7.37712937,18.9067608" id="path240" fill="#E5005B" transform="translate(3.794035, 19.594219) scale(1, -1) translate(-3.794035, -19.594219) "></path>
                <path d="M26.638986,14.8383974 C26.1315385,14.8383974 25.6892308,15.1075734 25.4523951,15.5085906 L25.4523951,15.5085906 L21.7993357,13.4493552 C21.9159441,13.2531628 21.9834965,13.0255796 21.9834965,12.7826934 L21.9834965,12.7826934 C21.9834965,12.5382377 21.9147378,12.3098697 21.7981294,12.1128925 L21.7981294,12.1128925 L22.7704021,11.5647309 C22.9839161,11.9233707 23.1085664,12.3385138 23.1085664,12.7826934 L23.1085664,12.7826934 C23.1085664,12.990265 23.0788112,13.1903812 23.028549,13.3826498 L23.028549,13.3826498 L24.8966958,14.4350258 C25.1910315,14.1544707 25.5565385,13.9453296 25.9642657,13.8331075 L25.9642657,13.8331075 L25.9642657,11.7271783 C25.3325699,11.5541366 24.803007,11.1433097 24.4805245,10.6014262 L24.4805245,10.6014262 L25.4531993,10.0536571 C25.6896329,10.4534972 26.1319406,10.7234579 26.638986,10.7234579 L26.638986,10.7234579 C27.1456294,10.7234579 27.5871329,10.4534972 27.8247727,10.0544418 L27.8247727,10.0544418 L28.7966434,10.602211 C28.4737587,11.1433097 27.945,11.5541366 27.3141084,11.7271783 L27.3141084,11.7271783 L27.3141084,13.8331075 C27.9458042,14.0073264 28.4757692,14.4181533 28.7978497,14.9608215 L28.7978497,14.9608215 L27.8255769,15.5085906 C27.5887413,15.1075734 27.1468357,14.8383974 26.638986,14.8383974" id="path260" fill="url(#linearGradient-8)" transform="translate(25.215962, 12.800351) scale(1, -1) translate(-25.215962, -12.800351) "></path>
                <path d="M28.009014,16.2938704 C28.009014,16.0501994 27.9410594,15.8226162 27.824451,15.625639 L28.7971259,15.0774775 C29.0098357,15.4361172 29.1340839,15.8508679 29.1340839,16.2938704 C29.1340839,16.7376576 29.0098357,17.1528007 28.7967238,17.511048 L27.824451,16.9628865 C27.9410594,16.7659093 28.009014,16.5383261 28.009014,16.2938704" id="path272" fill="#00A8B0" transform="translate(28.427598, 16.254632) scale(1, -1) translate(-28.427598, -16.254632) "></path>
                <path d="M20.6127448,18.2372346 C20.1069056,18.2372346 19.6658042,18.5064106 19.4285664,18.9050735 L19.4285664,18.9050735 L18.4562937,18.356912 C18.7787762,17.8162057 19.3079371,17.4061636 19.9384266,17.2327295 L19.9384266,17.2327295 L19.9384266,15.1252307 C19.5319056,15.013401 19.1676049,14.8046523 18.8736713,14.5252743 L18.8736713,14.5252743 L15.2632343,16.5566505 L14.5873077,16.1760372 L19.4265559,13.4497476 C19.6633916,13.8499801 20.1052972,14.1203332 20.6127448,14.1203332 L20.6127448,14.1203332 C21.1205944,14.1203332 21.5629021,13.8499801 21.7993357,13.4497476 L21.7993357,13.4497476 L22.7720105,13.9979091 C22.4491259,14.5405773 21.919965,14.9514042 21.2882692,15.1252307 L21.2882692,15.1252307 L21.2882692,17.2327295 C21.9187587,17.4061636 22.4479196,17.8162057 22.7704021,18.356912 L22.7704021,18.356912 L21.7981294,18.9050735 C21.5608916,18.5064106 21.1193881,18.2372346 20.6127448,18.2372346 M24.1435664,16.1776067 C24.1435664,15.7346043 24.2674126,15.3202459 24.4805245,14.9612138 L24.4805245,14.9612138 L25.4531993,15.5093754 C25.3365909,15.7059602 25.2686364,15.9339358 25.2686364,16.1776067 L25.2686364,16.1776067 C25.2686364,16.4212777 25.3365909,16.6488609 25.4531993,16.8458381 L25.4531993,16.8458381 L24.4805245,17.3936073 C24.2674126,17.0361447 24.1435664,16.6210016 24.1435664,16.1776067" id="path292" fill="url(#linearGradient-9)" transform="translate(20.015629, 16.196441) scale(1, -1) translate(-20.015629, -16.196441) "></path>
                <path d="M26.638986,21.6313632 C26.1319406,21.6313632 25.690035,21.9013239 25.4531993,22.2999869 L25.4531993,22.2999869 L24.4805245,21.7518253 C24.9127797,21.0247363 25.7173776,20.5342553 26.638986,20.5342553 L26.638986,20.5342553 C27.5605944,20.5342553 28.3651923,21.025521 28.7970455,21.7518253 L28.7970455,21.7518253 L27.8247727,22.2999869 C27.587535,21.9013239 27.1460315,21.6313632 26.638986,21.6313632 L26.638986,21.6313632 Z M21.7993357,20.240359 C21.9159441,20.044559 21.9834965,19.8165835 21.9834965,19.5736973 L21.9834965,19.5736973 C21.9834965,19.3292415 21.9147378,19.1008736 21.7981294,18.9038964 L21.7981294,18.9038964 L25.4531993,16.8450533 C25.6896329,17.244501 26.1315385,17.5144618 26.6385839,17.5144618 L26.6385839,17.5144618 C27.1456294,17.5144618 27.5871329,17.244501 27.8247727,16.8454457 L27.8247727,16.8454457 L28.7970455,17.3932149 C28.3647902,18.1206963 27.5601923,18.6119621 26.6385839,18.6119621 L26.6385839,18.6119621 C25.9626573,18.6119621 25.3498601,18.34671 24.8999126,17.9197953 L24.8999126,17.9197953 L23.028951,18.9745257 C23.0788112,19.1667942 23.1085664,19.3665181 23.1085664,19.5736973 L23.1085664,19.5736973 C23.1085664,20.0166997 22.9847203,20.4314504 22.7720105,20.7885206 L22.7720105,20.7885206 L21.7993357,20.240359 L21.7993357,20.240359 Z" id="path312" fill="url(#linearGradient-10)" transform="translate(25.215962, 19.591747) scale(1, -1) translate(-25.215962, -19.591747) "></path>
                <path d="M9.74846154,19.4579437 C9.86466783,19.2609666 9.93262238,19.0341681 9.93262238,18.7904972 L9.93262238,18.7904972 C9.93262238,18.5468262 9.86426573,18.3184583 9.74685315,18.1214811 L9.74685315,18.1214811 L13.4019231,16.0622456 C13.6391608,16.4616933 14.0806643,16.7316541 14.5877098,16.7316541 L14.5877098,16.7316541 C15.0947552,16.7316541 15.5362587,16.4624781 15.7734965,16.0622456 L15.7734965,16.0622456 L16.7461713,16.611192 C16.313514,17.3374962 15.5097203,17.828762 14.5877098,17.828762 L14.5877098,17.828762 C13.9117832,17.828762 13.2981818,17.564687 12.8482343,17.1369876 L12.8482343,17.1369876 L10.9772727,18.1905408 C11.0279371,18.3828094 11.0572902,18.5837104 11.0572902,18.7904972 L11.0572902,18.7904972 C11.0572902,18.9984611 11.0279371,19.1993621 10.9772727,19.3912383 L10.9772727,19.3912383 L14.5877098,21.4261459 L18.1981469,19.393985 C18.1474825,19.2013241 18.1181294,19.0008154 18.1181294,18.7928515 L18.1181294,18.7928515 C18.1181294,18.3486719 18.2423776,17.9339211 18.4558916,17.5752814 L18.4558916,17.5752814 L19.4285664,18.1230506 C19.3111538,18.3200278 19.2431993,18.5483958 19.2431993,18.7928515 L19.2431993,18.7928515 C19.2431993,19.0357377 19.3103497,19.2629285 19.4265559,19.4595133 L19.4265559,19.4595133 L14.5873077,22.1858029 L9.74846154,19.4579437 L9.74846154,19.4579437 Z" id="path332" fill="url(#linearGradient-11)" transform="translate(14.572028, 19.201324) scale(1, -1) translate(-14.572028, -19.201324) "></path>
                <path d="M20.6127448,25.0290232 C20.1069056,25.0290232 19.6658042,25.2974144 19.4285664,25.6960774 L19.4285664,25.6960774 L18.4558916,25.1483082 C18.888549,24.4216116 19.6923427,23.9311305 20.6127448,23.9311305 L20.6127448,23.9311305 C21.2902797,23.9311305 21.9042832,24.1963827 22.355035,24.6256517 L22.355035,24.6256517 L24.223986,23.5717061 C24.1733217,23.3786527 24.1435664,23.1781441 24.1435664,22.9693954 L24.1435664,22.9693954 C24.1435664,22.5256082 24.2674126,22.1112498 24.4805245,21.7522177 L24.4805245,21.7522177 L25.4531993,22.3011641 C25.3365909,22.4981412 25.2686364,22.7257244 25.2686364,22.9693954 L25.2686364,22.9693954 C25.2686364,23.2130663 25.3361888,23.4406495 25.4531993,23.6372343 L25.4531993,23.6372343 L21.7981294,25.6960774 C21.5608916,25.2974144 21.1193881,25.0290232 20.6127448,25.0290232 L20.6127448,25.0290232 Z M15.7734965,23.6352724 C15.8901049,23.4394724 15.9584615,23.210712 15.9584615,22.9670411 L15.9584615,22.9670411 C15.9584615,22.7233701 15.8901049,22.4957869 15.7734965,22.2992021 L15.7734965,22.2992021 L16.7461713,21.7510406 C16.9596853,22.1085031 17.0835315,22.5232539 17.0835315,22.9670411 L17.0835315,22.9670411 C17.0835315,23.4108283 16.9592832,23.8251866 16.7461713,24.1842187 L16.7461713,24.1842187 L15.7734965,23.6352724 L15.7734965,23.6352724 Z M18.4538811,20.788913 L19.4265559,20.2411438 C19.6633916,20.6409839 20.1052972,20.9117294 20.6131469,20.9117294 L20.6131469,20.9117294 C21.1205944,20.9117294 21.5625,20.6421611 21.7993357,20.2411438 L21.7993357,20.2411438 L22.7720105,20.7900902 C22.3401573,21.517964 21.5351573,22.0092298 20.6131469,22.0092298 L20.6131469,22.0092298 C19.6907343,22.0092298 18.8857343,21.5171792 18.4538811,20.788913 L18.4538811,20.788913 Z" id="path352" fill="url(#linearGradient-12)" transform="translate(20.598671, 22.987837) scale(1, -1) translate(-20.598671, -22.987837) "></path>
                <path d="M6.4018007,24.3219458 L7.37407343,23.7741766 C7.61131119,24.1755863 8.05402098,24.4463318 8.56187063,24.4463318 L8.56187063,24.4463318 C9.07012238,24.4463318 9.51283217,24.1755863 9.74926573,23.7749614 L9.74926573,23.7749614 L10.7219406,24.3227306 C10.2900874,25.0517816 9.48468531,25.5438321 8.56187063,25.5438321 L8.56187063,25.5438321 C7.63905594,25.5438321 6.83325175,25.0509968 6.4018007,24.3219458" id="path372" fill="url(#linearGradient-13)" transform="translate(8.613339, 24.755139) scale(1, -1) translate(-8.613339, -24.755139) "></path>
                <path d="M8.56187063,23.5783766 C8.05562937,23.5783766 7.61452797,23.8467678 7.37729021,24.2450384 L7.37729021,24.2450384 L3.72342657,22.1858029 C3.83963287,21.9900029 3.90718531,21.7628121 3.90718531,21.5207107 L3.90718531,21.5207107 C3.90718531,21.2762549 3.83802448,21.0471022 3.72061189,20.8493403 L3.72061189,20.8493403 L4.69288462,20.3015711 C4.9068007,20.6606032 5.03185315,21.0761387 5.03185315,21.5207107 L5.03185315,21.5207107 C5.03185315,21.7282822 5.0016958,21.9283985 4.95223776,22.1210594 L4.95223776,22.1210594 L6.82159091,23.1738279 C7.27153846,22.7453437 7.88513986,22.4800915 8.56187063,22.4800915 L8.56187063,22.4800915 C9.2390035,22.4800915 9.85300699,22.7453437 10.3029545,23.1738279 L10.3029545,23.1738279 L12.1727098,22.1210594 C12.1224476,21.9276137 12.0922902,21.7267127 12.0922902,21.5183564 L12.0922902,21.5183564 C12.0922902,21.0745691 12.2165385,20.6598184 12.4296503,20.3023558 L12.4296503,20.3023558 L13.4019231,20.8505174 C13.2857168,21.0471022 13.2173601,21.2746854 13.2173601,21.5183564 L13.2173601,21.5183564 C13.2173601,21.7620273 13.2857168,21.9900029 13.4019231,22.1865877 L13.4019231,22.1865877 L9.74685315,24.2458232 C9.50961538,23.8467678 9.06851399,23.5783766 8.56187063,23.5783766" id="path392" fill="url(#linearGradient-14)" transform="translate(8.545787, 22.263495) scale(1, -1) translate(-8.545787, -22.263495) "></path>
                <path d="M20.6131469,11.4415221 C20.1052972,11.4415221 19.6637937,11.7114829 19.4265559,12.1117154 L19.4265559,12.1117154 L18.4542832,11.5635538 C18.8857343,10.83568 19.6911364,10.343237 20.6131469,10.343237 L20.6131469,10.343237 C21.2906818,10.343237 21.9050874,10.6092739 22.3554371,11.0385429 L22.3554371,11.0385429 L24.223986,9.98577448 C24.1733217,9.79311354 24.1435664,9.59182014 24.1435664,9.38385619 L24.1435664,9.38385619 C24.1435664,9.17706939 24.1729196,8.97695314 24.2235839,8.78546936 L24.2235839,8.78546936 L22.3542308,7.73270092 C21.9042832,8.16079274 21.2898776,8.42604487 20.6127448,8.42604487 L20.6127448,8.42604487 C19.6907343,8.42604487 18.8857343,7.93438671 18.4538811,7.20533574 L18.4538811,7.20533574 L19.4261538,6.65795893 C19.6633916,7.05819143 20.1052972,7.32854457 20.6127448,7.32854457 L20.6127448,7.32854457 C21.1205944,7.32854457 21.5629021,7.05819143 21.7993357,6.65795893 L21.7993357,6.65795893 L25.4523951,8.7171944 C25.3361888,8.9133868 25.2686364,9.14018522 25.2686364,9.38385619 L25.2686364,9.38385619 C25.2686364,9.62791954 25.3365909,9.85589511 25.4540035,10.0528723 L25.4540035,10.0528723 L21.8001399,12.1117154 C21.5629021,11.7114829 21.1205944,11.4415221 20.6131469,11.4415221 L20.6131469,11.4415221 Z M15.7730944,10.0524799 C15.8897028,9.85511034 15.9580594,9.62791954 15.9580594,9.38385619 L15.9580594,9.38385619 C15.9580594,9.14018522 15.8897028,8.91260203 15.7734965,8.71562486 L15.7734965,8.71562486 L16.7461713,8.16746328 C16.9592832,8.52571061 17.0827273,8.94046136 17.0827273,9.38385619 L17.0827273,9.38385619 C17.0827273,9.82685864 16.9592832,10.2416094 16.7457692,10.6002491 L16.7457692,10.6002491 L15.7730944,10.0524799 L15.7730944,10.0524799 Z" id="path412" fill="url(#linearGradient-15)" transform="translate(20.598269, 9.404653) scale(1, -1) translate(-20.598269, -9.404653) "></path>
                <path d="M12.0918881,4.16474586 C12.0918881,3.72252818 12.2157343,3.30777744 12.4288462,2.95031488 L12.4288462,2.95031488 L13.4011189,3.49769169 C13.2845105,3.69506125 13.216958,3.92185967 13.216958,4.16474586 L13.216958,4.16474586 C13.216958,4.4092016 13.2857168,4.63756956 13.4027273,4.83454673 L13.4027273,4.83454673 L12.4300524,5.38270831 C12.2165385,5.02367621 12.0918881,4.60931785 12.0918881,4.16474586 M6.40381119,1.9866178 L7.37648601,1.4388486 C7.61332168,1.83790395 8.05522727,2.1078647 8.56187063,2.1078647 L8.56187063,2.1078647 C9.06931818,2.1078647 9.51041958,1.83868872 9.74805944,1.4388486 L9.74805944,1.4388486 L10.7203322,1.98740257 C10.2880769,2.71370684 9.48347902,3.20614978 8.56187063,3.20614978 L8.56187063,3.20614978 C7.64026224,3.20614978 6.83566434,2.71370684 6.40381119,1.9866178" id="path432" fill="url(#linearGradient-16)" transform="translate(9.821643, 3.400773) scale(1, -1) translate(-9.821643, -3.400773) "></path>
                <path d="M13.4027273,0.0049960413 C13.6403671,0.404443775 14.0814685,0.673227369 14.5873077,0.673227369 C15.093549,0.673227369 15.5350524,0.404443775 15.7722902,0.0049960413 L16.744965,0.553550002 C16.3123077,1.28024667 15.508514,1.77072768 14.5873077,1.77072768 C13.6665035,1.77072768 12.8623077,1.28024667 12.4300524,0.552765233 L13.4027273,0.0049960413 L13.4027273,0.0049960413 Z" id="path444" fill="#DEDC00" transform="translate(14.641591, 0.985958) scale(1, -1) translate(-14.641591, -0.985958) "></path>
                <path d="M6.06725524,7.56436784 C6.06725524,7.35718866 6.09660839,7.15824956 6.14646853,6.96558862 L6.14646853,6.96558862 L4.2747028,5.91125064 C3.82435315,6.33816531 3.21236014,6.60224029 2.53603147,6.60224029 L2.53603147,6.60224029 C1.61482517,6.60224029 0.809825175,6.11097451 0.378374126,5.38388546 L0.378374126,5.38388546 L1.35064685,4.83572388 C1.58788462,5.23517162 2.02898601,5.50513237 2.53603147,5.50513237 L2.53603147,5.50513237 C3.04347902,5.50513237 3.48498252,5.23517162 3.72222028,4.83572388 L3.72222028,4.83572388 L7.37688811,6.89613651 C7.25987762,7.0927213 7.19192308,7.32069687 7.19192308,7.56436784 L7.19192308,7.56436784 C7.19192308,7.8080388 7.25987762,8.03562199 7.37648601,8.23259916 L7.37648601,8.23259916 L6.40381119,8.78036835 C6.1906993,8.42172864 6.06725524,8.0069779 6.06725524,7.56436784" id="path464" fill="url(#linearGradient-17)" transform="translate(3.796206, 6.797648) scale(1, -1) translate(-3.796206, -6.797648) "></path>
                <path d="M1.16624476,9.50765359 C1.16624476,9.75132456 1.2341993,9.97890775 1.35080769,10.1758849 L0.378132867,10.7240465 C0.165423077,10.3654068 0.0411748252,9.95065604 0.0411748252,9.50765359 C0.0411748252,9.06386638 0.165423077,8.64911564 0.378534965,8.29047592 L1.35080769,8.83942227 C1.2341993,9.03639944 1.16624476,9.26398263 1.16624476,9.50765359" id="path476" fill="#EC6608" transform="translate(0.644322, 9.467630) scale(1, -1) translate(-0.644322, -9.467630) "></path>
                <path d="M21.7981294,8.22789054 C21.9147378,8.03091337 21.9834965,7.80254541 21.9834965,7.55808968 L21.9834965,7.55808968 C21.9834965,7.31520348 21.9159441,7.08840506 21.8001399,6.89142789 L21.8001399,6.89142789 L25.4540035,4.83258481 C25.6916434,5.23203254 26.1323427,5.50081613 26.638986,5.50081613 L26.638986,5.50081613 C27.1452273,5.50081613 27.5863287,5.23203254 27.8239685,4.83336957 L27.8239685,4.83336957 L28.7958392,5.38153115 C28.3635839,6.10783543 27.5597902,6.59831644 26.638986,6.59831644 L26.638986,6.59831644 C25.9626573,6.59831644 25.349458,6.33384908 24.8995105,5.90575725 L24.8995105,5.90575725 L23.028951,6.95931046 C23.0792133,7.1519714 23.1085664,7.3509105 23.1085664,7.55808968 L23.1085664,7.55808968 C23.1085664,8.00266167 22.9839161,8.41741241 22.7704021,8.77565974 L22.7704021,8.77565974 L21.7981294,8.22789054 L21.7981294,8.22789054 Z" id="path496" fill="url(#linearGradient-18)" transform="translate(25.215962, 6.794509) scale(1, -1) translate(-25.215962, -6.794509) "></path>
                <path d="M28.009014,9.50062991 C28.009014,9.25695894 27.9414615,9.03016052 27.8256573,8.83396812 L28.7979301,8.28580654 C29.0102378,8.64287672 29.1340839,9.05762746 29.1340839,9.50062991 C29.1340839,9.94441712 29.0094336,10.3595603 28.7959196,10.7185923 L27.8232448,10.1704308 C27.9406573,9.97266883 28.009014,9.74508564 28.009014,9.50062991" id="path508" fill="#76B82A" transform="translate(28.426392, 9.462961) scale(1, -1) translate(-28.426392, -9.462961) "></path>
                <path d="M15.7722902,4.83140765 C15.8893007,4.63443048 15.9580594,4.40606252 15.9580594,4.16160678 L15.9580594,4.16160678 C15.9580594,3.91950536 15.8901049,3.69192217 15.7743007,3.49572977 L15.7743007,3.49572977 L16.7469755,2.94756819 C16.9596853,3.30542313 17.0827273,3.71938911 17.0827273,4.16160678 L17.0827273,4.16160678 C17.0827273,4.60617877 16.958479,5.0213219 16.7445629,5.380354 L16.7445629,5.380354 L15.7722902,4.83140765 L15.7722902,4.83140765 Z M18.4554895,1.98504826 L19.4285664,1.43727907 C19.6658042,1.83554965 20.1069056,2.10472562 20.6131469,2.10472562 L20.6131469,2.10472562 C21.1193881,2.10472562 21.5608916,1.83554965 21.7981294,1.43727907 L21.7981294,1.43727907 L22.7704021,1.98504826 C22.3381469,2.71174492 21.5343531,3.2030107 20.6131469,3.2030107 L20.6131469,3.2030107 C19.6923427,3.2030107 18.8881469,2.71174492 18.4554895,1.98504826 L18.4554895,1.98504826 Z" id="path528" fill="url(#linearGradient-19)" transform="translate(19.190122, 3.399203) scale(1, -1) translate(-19.190122, -3.399203) "></path>
                <path d="M26.6385839,26.9705433 C26.1315385,26.9705433 25.690035,27.240504 25.4531993,27.6399517 L25.4531993,27.6399517 L24.4805245,27.0910054 C24.9127797,26.3647011 25.7173776,25.8734353 26.6385839,25.8734353 L26.6385839,25.8734353 C27.5605944,25.8734353 28.3651923,26.3647011 28.7970455,27.0917902 L28.7970455,27.0917902 L27.8247727,27.6399517 C27.5871329,27.240504 27.1456294,26.9705433 26.6385839,26.9705433 L26.6385839,26.9705433 Z M21.7993357,25.5799315 C21.9159441,25.3837391 21.9834965,25.1561559 21.9834965,24.9132697 L21.9834965,24.9132697 C21.9834965,24.6695987 21.9147378,24.4412308 21.7981294,24.2438612 L21.7981294,24.2438612 L22.7704021,23.6953073 C22.9839161,24.053947 23.1085664,24.4694825 23.1085664,24.9132697 L23.1085664,24.9132697 C23.1085664,25.3562722 22.9843182,25.7706305 22.7720105,26.1288778 L22.7720105,26.1288778 L21.7993357,25.5799315 L21.7993357,25.5799315 Z" id="path548" fill="url(#linearGradient-20)" transform="translate(25.215962, 25.657231) scale(1, -1) translate(-25.215962, -25.657231) "></path>
                <path d="M28.009014,23.0847565 C28.009014,22.8410855 27.9410594,22.6135024 27.824451,22.4165252 L28.7971259,21.8683636 C29.0098357,22.2262186 29.1340839,22.6417541 29.1340839,23.0847565 C29.1340839,23.527759 29.0098357,23.9432945 28.7967238,24.3011494 L27.824049,23.7529878 C27.9410594,23.5560107 28.009014,23.3284275 28.009014,23.0847565" id="path560" fill="#0090D7" transform="translate(28.427196, 23.045518) scale(1, -1) translate(-28.427196, -23.045518) "></path>
                <path d="M2.53603147,26.9736823 C2.03059441,26.9736823 1.5902972,27.2420735 1.35265734,27.6399517 L1.35265734,27.6399517 L0.379982517,27.0921826 C0.81263986,26.3662707 1.61643357,25.8765744 2.53603147,25.8765744 L2.53603147,25.8765744 C3.45723776,25.8765744 4.26062937,26.3662707 4.69288462,27.0921826 L4.69288462,27.0921826 L3.72061189,27.6399517 C3.48297203,27.2420735 3.04227273,26.9736823 2.53603147,26.9736823 M6.06725524,24.9164088 C6.06725524,24.4718368 6.1915035,24.0563013 6.40582168,23.6968768 L6.40582168,23.6968768 L7.37809441,24.2458232 C7.26068182,24.4428003 7.19192308,24.6715607 7.19192308,24.9164088 L7.19192308,24.9164088 C7.19192308,25.159295 7.25867133,25.3853086 7.37407343,25.581501 L7.37407343,25.581501 L6.4018007,26.1292702 C6.1902972,25.7718077 6.06725524,25.3586265 6.06725524,24.9164088" id="path580" fill="url(#linearGradient-21)" transform="translate(3.797815, 25.658801) scale(1, -1) translate(-3.797815, -25.658801) "></path>
                <path d="M0.0414160839,23.0902499 C0.0414160839,22.6456779 0.166066434,22.2293576 0.379982517,21.8711103 L0.379982517,21.8711103 L1.35265734,22.4188795 C1.23484266,22.6166414 1.16608392,22.8450094 1.16608392,23.0902499 L1.16608392,23.0902499 C1.16608392,23.3323513 1.23283217,23.5595421 1.34903846,23.7553421 L1.34903846,23.7553421 L0.375961538,24.3035037 C0.164458042,23.9456488 0.0414160839,23.5324676 0.0414160839,23.0902499" id="path600" fill="url(#linearGradient-22)" transform="translate(0.644563, 23.048265) scale(1, -1) translate(-0.644563, -23.048265) "></path>
                <path d="M28.5026294,37.6321486 L15.2627517,37.6321486 L15.2627517,43.5975748 L15.2627517,43.6022834 L18.8727867,45.6352291 C19.3227343,45.2071373 19.9363357,44.9418852 20.6134685,44.9418852 C21.5342727,44.9418852 22.3384685,45.4323662 22.7703217,46.1586704 L21.798049,46.7076168 C21.5608112,46.3081691 21.1197098,46.0393855 20.6134685,46.0393855 C20.1068252,46.0393855 19.6657238,46.3081691 19.428486,46.7076168 C19.3114755,46.904594 19.2431189,47.1329619 19.2431189,47.3766329 C19.2431189,47.6195191 19.3106713,47.8471023 19.4268776,48.0432947 L18.4538007,48.5914563 C18.241493,48.2336013 18.118049,47.8196353 18.118049,47.3766329 C18.118049,47.1690613 18.1478042,46.9689451 18.1980664,46.7766765 L15.2627517,45.1227746 L15.2627517,48.4282242 C15.8944476,48.6012659 16.4236084,49.0120928 16.7460909,49.5531914 L15.7738182,50.1009606 C15.5365804,49.7019053 15.0950769,49.4319445 14.5880315,49.4319445 C14.080986,49.4319445 13.6390804,49.7019053 13.4018427,50.1009606 L12.4295699,49.5531914 C12.7524545,49.0120928 13.2816154,48.6012659 13.9133112,48.4282242 L13.9129091,45.1235593 L10.9779965,46.7782461 C11.0278566,46.9697298 11.0572098,47.1698461 11.0572098,47.3766329 C11.0572098,47.8188506 10.9341678,48.2328165 10.7218601,48.5906715 L9.74918531,48.0425099 C9.86498951,47.8463175 9.93213986,47.6195191 9.93213986,47.3766329 C9.93213986,47.1321772 9.86378322,46.9030244 9.74637063,46.7060473 C9.50873077,46.3073843 9.06762937,46.0393855 8.56179021,46.0393855 C8.05635315,46.0393855 7.61605594,46.3073843 7.37841608,46.7060473 L6.40574126,46.1574933 C6.8379965,45.4323662 7.64179021,44.9418852 8.56179021,44.9418852 C9.23972727,44.9418852 9.85373077,45.2079221 10.3036783,45.6360139 L13.9129091,43.6022834 L13.9129091,43.5975748 L13.9129091,37.6321486 L0.672629371,37.6321486 C0.424132867,37.6321486 0.222681818,37.4351714 0.222681818,37.19307 C0.222681818,36.9501838 0.424132867,36.7539914 0.672629371,36.7539914 L13.8883811,36.7539914 C13.8147972,36.3255072 13.6149545,35.8283556 13.1376643,35.3928085 C12.2815979,34.6096084 10.7604615,34.2643098 8.7367028,34.3937968 C7.77970979,34.4534393 6.96304895,34.3949739 6.26701748,34.2564621 C6.22680769,34.2556773 6.18579371,34.2486144 6.14558392,34.2325266 C6.14236713,34.2313495 6.13955245,34.2297799 6.13593357,34.2282104 C3.81783916,33.7192873 2.90105594,32.2855132 2.73539161,31.3174999 C2.70483217,31.13818 2.82908042,30.9686698 3.01243706,30.9388485 C3.03133566,30.9357095 3.05023427,30.9341399 3.06873077,30.9341399 C3.23037413,30.9341399 3.37392308,31.0483239 3.40126573,31.2092017 C3.41332867,31.2814005 3.6179965,32.3604587 4.91596853,33.0922564 C4.80257692,32.7744247 4.77241958,32.4303032 4.74346853,32.078334 C4.70205245,31.5741195 4.6546049,31.0039844 4.34378322,30.3800926 C4.26215734,30.2160757 4.33212238,30.0190985 4.4997972,29.9394444 C4.54724476,29.9170785 4.59750699,29.9064841 4.64696503,29.9064841 C4.77201748,29.9064841 4.89224476,29.9747591 4.95054895,30.0920821 C5.31726224,30.8270189 5.37194755,31.4913263 5.41617832,32.0253621 C5.48212238,32.8234728 5.51951748,33.2656904 6.38161538,33.6149129 C6.6847972,33.6757326 7.01853846,33.7192873 7.38565385,33.7420456 C6.99602098,33.2747153 6.90956993,32.6288499 6.82191259,31.959049 C6.69605594,30.9941748 6.53923776,29.7930849 5.49016434,28.5806158 C5.36993706,28.442104 5.38803147,28.2341401 5.52997203,28.116817 C5.5931014,28.0650222 5.67070629,28.0387324 5.74750699,28.0387324 C5.84360839,28.0387324 5.93890559,28.0787557 6.00565385,28.1560555 C7.1833986,29.5164536 7.35429021,30.8246646 7.49140559,31.8762558 C7.64219231,33.0318291 7.75317133,33.5560552 8.74032168,33.7338055 C10.9615105,33.6003947 12.5960385,33.9951338 13.5996748,34.9125295 C13.7046224,35.0090561 13.7995175,35.1134305 13.8891853,35.2205516 C13.6129441,34.4373515 13.045986,33.5482075 11.8799021,32.5888267 C11.8799021,32.5888267 11.8795,32.5880419 11.8790979,32.5880419 C11.1408462,31.9810226 10.5155839,31.6208133 9.96390559,31.3029816 C8.91764685,30.6998862 8.1621049,30.2635543 7.88908042,28.7524804 C7.85691259,28.5731605 7.97995455,28.4020808 8.16331119,28.37069 C8.18341608,28.3667661 8.20271678,28.3651966 8.22201748,28.3651966 C8.38285664,28.3651966 8.5251993,28.477811 8.55415035,28.6382964 C8.77289161,29.8511578 9.31773427,30.1646733 10.3068951,30.7355932 C10.3977692,30.7877804 10.4942727,30.8438914 10.5923846,30.9011796 C10.3704266,30.3879403 10.2578392,29.8790172 10.1528916,29.3999153 C9.91203497,28.2984912 9.70374825,27.3485275 8.3715979,26.4962677 C8.21558392,26.396602 8.17175524,26.1925619 8.27388811,26.0403166 C8.33902797,25.9433976 8.44679021,25.8916028 8.55696503,25.8916028 C8.62009441,25.8916028 8.68443007,25.9092601 8.74112587,25.9449671 C10.3060909,26.9459407 10.5638357,28.1238799 10.8131364,29.2617959 C10.8416853,29.3928524 10.8698322,29.521947 10.9003916,29.6506492 C10.9715629,29.3010343 11.0749021,28.9569129 11.1754266,28.6241706 C11.3973846,27.8900186 11.6265804,27.130754 11.497507,26.4150441 C11.4653392,26.2357242 11.587979,26.0646445 11.7717378,26.0332537 C11.7910385,26.0301146 11.8107413,26.0285451 11.8304441,26.0285451 C11.9912832,26.0285451 12.1336259,26.1403747 12.1621748,26.3008601 C12.318993,27.1688153 12.0664755,28.0034178 11.8228042,28.8113381 C11.4500594,30.0438188 11.127979,31.1087512 12.314972,32.0853969 L12.3153741,32.0853969 C13.3101643,32.9046964 13.9100944,33.6902508 14.2727867,34.4106693 C14.3491853,33.5482075 14.4517203,32.7897277 14.5562657,32.1073705 C14.7951119,30.5425399 14.3978392,30.0626533 13.9374371,29.5070364 C13.4758287,28.9502423 12.9522972,28.3192876 13.0520175,26.7136489 C13.0632762,26.5390377 13.2120524,26.4040573 13.3889755,26.4040573 C13.3958112,26.4040573 13.4026469,26.4040573 13.4094825,26.4048421 C13.5960559,26.4158289 13.7371923,26.571998 13.7259336,26.7536722 C13.6418951,28.1038683 14.0403741,28.5845397 14.4621748,29.0934628 C14.6210035,29.2841618 14.7814406,29.4779999 14.918958,29.7095069 C15.1260385,27.8947272 14.9366503,26.5013687 13.3053392,24.2635982 C13.1975769,24.1156691 13.2325594,23.9104519 13.3845524,23.804508 C13.4440629,23.7633076 13.5124196,23.7440807 13.579972,23.7440807 C13.6853217,23.7440807 13.789465,23.7915593 13.855007,23.8822002 C16.0757937,26.9274986 15.805986,28.5951341 15.3588531,31.356346 C15.2100769,32.2737417 15.0391853,33.3323959 14.9322273,34.6221647 C15.3025594,33.8687859 15.8055839,33.3045365 16.2772448,32.7787409 C17.4666503,31.4520879 18.4940105,30.3075014 16.9837308,26.48018 C16.9165804,26.309885 17.0030315,26.1199707 17.1771399,26.0540501 C17.2169476,26.0395318 17.2575594,26.0316841 17.2981713,26.0316841 C17.4340804,26.0316841 17.5615455,26.112123 17.6134161,26.2431795 C18.3930839,28.2196218 18.5257762,29.5776656 18.3207063,30.6037519 C18.7847273,30.0136052 19.0883112,29.2135325 18.9242552,27.7032434 C18.9041503,27.522354 19.0388531,27.3599067 19.2238182,27.3406799 C19.2358811,27.3398951 19.247542,27.3391103 19.260007,27.3391103 C19.4300944,27.3391103 19.576458,27.4638887 19.5949545,27.6333989 C19.6536608,28.1744976 19.6536608,28.6351573 19.613451,29.0404908 C20.0457063,28.607298 20.5181713,28.2043188 20.9122273,27.98733 C20.9645,27.9590783 21.0215979,27.9453448 21.0774895,27.9453448 C21.1953042,27.9453448 21.3099021,28.0057721 21.3722273,28.1132855 C21.4631014,28.271809 21.4060035,28.47271 21.2431538,28.561389 C20.5422972,28.9471033 19.4373322,30.1356368 19.0625769,30.7179359 C19.0573497,30.7273531 19.050514,30.7340237 19.0444825,30.7418714 C18.7601993,31.1762413 18.4111783,31.5007436 18.0786434,31.8064113 C17.8297448,32.0363488 17.5949196,32.2525529 17.3934685,32.5068182 C17.3902517,32.5107421 17.3862308,32.5138812 17.3834161,32.5166278 C17.1912133,32.7583369 16.9873497,32.9867048 16.7846923,33.2127185 C16.2941329,33.7589181 15.7947273,34.3184589 15.4589755,35.0840016 C16.1759161,34.4718813 17.268014,34.2442982 18.4401294,34.1155959 C18.4433462,34.1148112 18.4465629,34.1140264 18.450986,34.1132416 C20.1036084,33.9354913 20.3424545,32.7712856 20.6195,31.4238362 C20.7349021,30.8615487 20.8543252,30.2780725 21.0915629,29.7715037 C21.1482587,29.651434 21.2708986,29.5792352 21.3987657,29.5792352 C21.4458112,29.5792352 21.4932587,29.5890448 21.5390979,29.6090564 C21.7087832,29.6851791 21.7827692,29.8805867 21.7055664,30.0461731 C21.5008986,30.4828974 21.3939406,31.0031996 21.280951,31.5533231 C21.2186259,31.8585985 21.1526818,32.1713292 21.0682413,32.4777818 C21.3525245,32.3345613 21.6488706,32.2164535 21.9424021,32.1014847 C22.7164406,31.7977789 23.3851294,31.5356658 23.6702168,30.8584096 C23.7236958,30.7304922 23.8499545,30.6535848 23.9826469,30.6535848 C24.0248671,30.6535848 24.0686958,30.6614325 24.1101119,30.678305 C24.283014,30.7473647 24.3654441,30.9396333 24.2946748,31.1083588 C23.9018252,32.0430194 23.0332937,32.3840018 22.1937133,32.7128203 C21.5234161,32.9757181 20.8897098,33.2240977 20.4856014,33.7573486 C20.4353392,33.824054 20.3810559,33.8884051 20.3235559,33.9507943 C22.4422098,33.7620572 24.476021,33.4057718 25.0421748,31.3689023 C25.0823846,31.221758 25.2182937,31.1252313 25.3670699,31.1252313 C25.3964231,31.1252313 25.4261783,31.1287628 25.4559336,31.1366105 C25.6352692,31.184089 25.7418252,31.3649784 25.6931713,31.5411592 C24.9424545,34.2450829 22.151493,34.4679575 19.6890455,34.6649347 C17.1622622,34.8666205 15.5422098,35.089495 15.308993,36.7539914 L28.5026294,36.7539914 C28.7511259,36.7539914 28.9525769,36.9501838 28.9525769,37.19307 C28.9525769,37.4351714 28.7511259,37.6321486 28.5026294,37.6321486" id="path612" fill="#213A8F" transform="translate(14.497157, 36.888972) scale(1, -1) translate(-14.497157, -36.888972) "></path>
            </g>
            <path d="M120.085,15.916 L120.085,15.168 L114.717,15.168 L114.717,15.916 L116.983,15.916 L116.983,23 L117.819,23 L117.819,15.916 L120.085,15.916 Z M126.41,23 L126.41,22.252 L122.384,22.252 L122.384,19.425 L125.816,19.425 L125.816,18.677 L122.384,18.677 L122.384,15.916 L126.41,15.916 L126.41,15.168 L121.548,15.168 L121.548,23 L126.41,23 Z M133.527,23 L133.527,15.168 L128.148,15.168 L128.148,23 L128.984,23 L128.984,15.916 L132.691,15.916 L132.691,23 L133.527,23 Z M140.985,23 L140.985,15.168 L136.673,15.168 L136.673,18.347 C136.673,21.603 135.98,22.252 135.012,22.252 L134.803,22.252 L134.803,23 L135.199,23 C136.695,23 137.487,21.9 137.487,18.6 L137.487,15.916 L140.149,15.916 L140.149,23 L140.985,23 Z M148.861,23 L148.861,15.168 L148.069,15.168 L144.087,21.548 L144.087,15.168 L143.251,15.168 L143.251,23 L144.043,23 L148.025,16.609 L148.025,23 L148.861,23 Z M157.441,24.892 L157.441,22.252 L156.506,22.252 L156.506,15.168 L155.67,15.168 L155.67,22.252 L151.963,22.252 L151.963,15.168 L151.127,15.168 L151.127,23 L156.616,23 L156.616,24.892 L157.441,24.892 Z M164.481,23 L161.61,15.168 L160.906,15.168 L158.024,23 L158.915,23 L159.542,21.229 L162.963,21.229 L163.59,23 L164.481,23 Z M162.721,20.503 L159.795,20.503 L161.269,16.367 L162.721,20.503 Z M72.466,36.734 L71.63,36.734 C71.421,37.691 70.728,38.318 69.749,38.318 C69.232,38.318 68.737,38.12 68.396,37.768 C67.901,37.262 67.846,36.723 67.846,35.084 C67.846,33.445 67.901,32.906 68.396,32.4 C68.737,32.048 69.232,31.85 69.749,31.85 C70.728,31.85 71.399,32.477 71.608,33.434 L72.466,33.434 C72.202,31.96 71.157,31.102 69.749,31.102 C68.979,31.102 68.275,31.388 67.747,31.916 C67.01,32.653 67.01,33.423 67.01,35.084 C67.01,36.745 67.01,37.515 67.747,38.252 C68.275,38.78 68.979,39.066 69.749,39.066 C71.146,39.066 72.213,38.208 72.466,36.734 Z M79.275,34.545 C79.275,33.588 79.22,32.598 78.538,31.916 C78.01,31.388 77.306,31.102 76.536,31.102 C75.766,31.102 75.062,31.388 74.534,31.916 C73.863,32.587 73.797,33.544 73.797,34.479 L73.797,35.084 C73.797,36.646 73.819,37.537 74.534,38.252 C75.062,38.78 75.755,39.066 76.536,39.066 C77.317,39.066 78.01,38.78 78.538,38.252 C79.253,37.537 79.275,36.646 79.275,35.084 L79.275,34.545 Z M78.439,35.469 C78.439,36.371 78.428,37.218 77.889,37.757 C77.526,38.12 77.053,38.318 76.536,38.318 C76.019,38.318 75.546,38.12 75.183,37.757 C74.677,37.251 74.633,36.481 74.633,35.634 L74.633,34.853 C74.633,33.775 74.633,32.961 75.183,32.411 C75.546,32.048 76.03,31.85 76.536,31.85 C77.042,31.85 77.526,32.048 77.889,32.411 C78.406,32.928 78.439,33.742 78.439,34.666 L78.439,35.469 Z M87.558,40.892 L87.558,38.252 L86.623,38.252 L86.623,31.168 L85.787,31.168 L85.787,38.252 L82.08,38.252 L82.08,31.168 L81.244,31.168 L81.244,39 L86.733,39 L86.733,40.892 L87.558,40.892 Z M94.752,39 L94.752,31.168 L93.96,31.168 L89.978,37.548 L89.978,31.168 L89.142,31.168 L89.142,39 L89.934,39 L93.916,32.609 L93.916,39 L94.752,39 Z M102.474,39 L99.603,31.168 L98.899,31.168 L96.017,39 L96.908,39 L97.535,37.229 L100.956,37.229 L101.583,39 L102.474,39 Z M100.714,36.503 L97.788,36.503 L99.262,32.367 L100.714,36.503 Z M108.92,39 L108.92,31.168 L104.608,31.168 L104.608,34.347 C104.608,37.603 103.915,38.252 102.947,38.252 L102.738,38.252 L102.738,39 L103.134,39 C104.63,39 105.422,37.9 105.422,34.6 L105.422,31.916 L108.084,31.916 L108.084,39 L108.92,39 Z M116.543,36.701 C116.543,35.315 115.586,34.391 114.123,34.391 L112.022,34.391 L112.022,31.168 L111.186,31.168 L111.186,39 L114.123,39 C115.575,39 116.543,38.076 116.543,36.701 Z M115.696,36.701 C115.696,37.68 115.091,38.252 114.046,38.252 L112.022,38.252 L112.022,35.139 L114.046,35.139 C115.091,35.139 115.696,35.711 115.696,36.701 Z M123.506,39 L123.506,31.168 L122.67,31.168 L122.67,34.677 L118.952,34.677 L118.952,31.168 L118.116,31.168 L118.116,39 L118.952,39 L118.952,35.425 L122.67,35.425 L122.67,39 L123.506,39 Z M133.01,39 L133.01,31.168 L132.174,31.168 L132.174,39 L133.01,39 Z M131.129,36.701 C131.129,35.315 130.172,34.391 128.709,34.391 L126.608,34.391 L126.608,31.168 L125.772,31.168 L125.772,39 L128.709,39 C130.161,39 131.129,38.076 131.129,36.701 Z M130.282,36.701 C130.282,37.68 129.677,38.252 128.632,38.252 L126.608,38.252 L126.608,35.139 L128.632,35.139 C129.677,35.139 130.282,35.711 130.282,36.701 Z M140.039,39 L137.619,34.985 L139.874,31.168 L138.906,31.168 L137.168,34.259 L135.43,31.168 L134.462,31.168 L136.706,34.985 L134.308,39 L135.254,39 L137.168,35.711 L139.071,39 L140.039,39 Z M148.641,31.916 L148.641,31.168 L143.273,31.168 L143.273,31.916 L145.539,31.916 L145.539,39 L146.375,39 L146.375,31.916 L148.641,31.916 Z M154.966,39 L154.966,38.252 L150.94,38.252 L150.94,35.425 L154.372,35.425 L154.372,34.677 L150.94,34.677 L150.94,31.916 L154.966,31.916 L154.966,31.168 L150.104,31.168 L150.104,39 L154.966,39 Z M161.467,39 L159.047,34.985 L161.302,31.168 L160.334,31.168 L158.596,34.259 L156.858,31.168 L155.89,31.168 L158.134,34.985 L155.736,39 L156.682,39 L158.596,35.711 L160.499,39 L161.467,39 Z M168.155,39 L168.155,31.168 L167.319,31.168 L167.319,34.677 L163.601,34.677 L163.601,31.168 L162.765,31.168 L162.765,39 L163.601,39 L163.601,35.425 L167.319,35.425 L167.319,39 L168.155,39 Z M175.602,34.545 C175.602,33.588 175.547,32.598 174.865,31.916 C174.337,31.388 173.633,31.102 172.863,31.102 C172.093,31.102 171.389,31.388 170.861,31.916 C170.19,32.587 170.124,33.544 170.124,34.479 L170.124,35.084 C170.124,36.646 170.146,37.537 170.861,38.252 C171.389,38.78 172.082,39.066 172.863,39.066 C173.644,39.066 174.337,38.78 174.865,38.252 C175.58,37.537 175.602,36.646 175.602,35.084 L175.602,34.545 Z M174.766,35.469 C174.766,36.371 174.755,37.218 174.216,37.757 C173.853,38.12 173.38,38.318 172.863,38.318 C172.346,38.318 171.873,38.12 171.51,37.757 C171.004,37.251 170.96,36.481 170.96,35.634 L170.96,34.853 C170.96,33.775 170.96,32.961 171.51,32.411 C171.873,32.048 172.357,31.85 172.863,31.85 C173.369,31.85 173.853,32.048 174.216,32.411 C174.733,32.928 174.766,33.742 174.766,34.666 L174.766,35.469 Z M182.532,39 L182.532,31.168 L178.22,31.168 L178.22,34.347 C178.22,37.603 177.527,38.252 176.559,38.252 L176.35,38.252 L176.35,39 L176.746,39 C178.242,39 179.034,37.9 179.034,34.6 L179.034,31.916 L181.696,31.916 L181.696,39 L182.532,39 Z M189.979,34.545 C189.979,33.588 189.924,32.598 189.242,31.916 C188.714,31.388 188.01,31.102 187.24,31.102 C186.47,31.102 185.766,31.388 185.238,31.916 C184.567,32.587 184.501,33.544 184.501,34.479 L184.501,35.084 C184.501,36.646 184.523,37.537 185.238,38.252 C185.766,38.78 186.459,39.066 187.24,39.066 C188.021,39.066 188.714,38.78 189.242,38.252 C189.957,37.537 189.979,36.646 189.979,35.084 L189.979,34.545 Z M189.143,35.469 C189.143,36.371 189.132,37.218 188.593,37.757 C188.23,38.12 187.757,38.318 187.24,38.318 C186.723,38.318 186.25,38.12 185.887,37.757 C185.381,37.251 185.337,36.481 185.337,35.634 L185.337,34.853 C185.337,33.775 185.337,32.961 185.887,32.411 C186.25,32.048 186.734,31.85 187.24,31.85 C187.746,31.85 188.23,32.048 188.593,32.411 C189.11,32.928 189.143,33.742 189.143,34.666 L189.143,35.469 Z M196.733,31.916 L196.733,31.168 L192.025,31.168 L192.025,39 L192.861,39 L192.861,31.916 L196.733,31.916 Z M203.817,39 L203.817,31.168 L203.025,31.168 L199.043,37.548 L199.043,31.168 L198.207,31.168 L198.207,39 L198.999,39 L202.981,32.609 L202.981,39 L203.817,39 Z M211.693,39 L211.693,31.168 L210.901,31.168 L206.919,37.548 L206.919,31.168 L206.083,31.168 L206.083,39 L206.875,39 L210.857,32.609 L210.857,39 L211.693,39 Z M210.494,29.287 L209.79,29.287 C209.746,29.826 209.427,30.101 208.888,30.101 C208.349,30.101 208.03,29.826 207.986,29.287 L207.282,29.287 C207.348,30.266 207.975,30.673 208.888,30.673 C209.801,30.673 210.428,30.266 210.494,29.287 Z" id="" fill="#313131" sketch:type="MSShapeGroup"></path>
            <path d="M123.377,58 L123.377,56.79 L122.86,56.79 C122.519,56.79 122.365,56.603 122.365,56.273 L122.365,53.523 L123.377,53.523 L123.377,52.434 L122.365,52.434 L122.365,50.74 L120.935,50.74 L120.935,52.434 L120.33,52.434 L120.33,53.523 L120.935,53.523 L120.935,56.361 C120.935,57.175 121.43,58 122.596,58 L123.377,58 Z M129.35,55.58 L129.35,54.942 C129.35,53.369 128.448,52.203 126.853,52.203 C125.368,52.203 124.356,53.259 124.356,55.129 C124.356,57.45 125.654,58.066 127.007,58.066 C128.041,58.066 128.602,57.747 129.185,57.164 L128.316,56.317 C127.953,56.68 127.645,56.856 127.018,56.856 C126.215,56.856 125.764,56.317 125.764,55.58 L129.35,55.58 Z M127.942,54.601 L125.764,54.601 C125.775,54.348 125.808,54.194 125.896,53.985 C126.05,53.644 126.369,53.391 126.853,53.391 C127.337,53.391 127.656,53.644 127.81,53.985 C127.898,54.194 127.931,54.348 127.942,54.601 Z M133.904,55.525 L133.904,54.194 L130.516,54.194 L130.516,55.525 L133.904,55.525 Z M139.668,56.196 C139.668,55.228 139.096,54.623 137.963,54.513 L137.061,54.425 C136.555,54.381 136.467,54.139 136.467,53.93 C136.467,53.644 136.709,53.38 137.281,53.38 C137.776,53.38 138.282,53.468 138.612,53.765 L139.492,52.874 C138.942,52.357 138.194,52.203 137.303,52.203 C136.137,52.203 135.092,52.841 135.092,54.029 C135.092,55.085 135.73,55.536 136.764,55.635 L137.666,55.723 C138.117,55.767 138.271,55.965 138.271,56.251 C138.271,56.68 137.754,56.845 137.259,56.845 C136.819,56.845 136.203,56.779 135.73,56.306 L134.795,57.241 C135.521,57.967 136.335,58.066 137.237,58.066 C138.59,58.066 139.668,57.461 139.668,56.196 L139.668,56.196 Z M143.331,58 L143.331,56.79 L142.814,56.79 C142.473,56.79 142.319,56.603 142.319,56.273 L142.319,53.523 L143.331,53.523 L143.331,52.434 L142.319,52.434 L142.319,50.74 L140.889,50.74 L140.889,52.434 L140.284,52.434 L140.284,53.523 L140.889,53.523 L140.889,56.361 C140.889,57.175 141.384,58 142.55,58 L143.331,58 Z M146.213,58 L146.213,56.372 L144.574,56.372 L144.574,58 L146.213,58 Z M151.955,52.742 C151.559,52.346 151.163,52.203 150.602,52.203 C149.986,52.203 149.436,52.489 149.161,52.819 L149.161,52.269 L147.764,52.269 L147.764,58 L149.194,58 L149.194,54.546 C149.194,53.82 149.678,53.49 150.118,53.49 C150.47,53.49 150.657,53.611 150.877,53.831 L151.955,52.742 Z M157.466,58 L157.466,52.269 L156.036,52.269 L156.036,55.734 C156.036,56.515 155.53,56.779 155.079,56.779 C154.628,56.779 154.133,56.515 154.133,55.734 L154.133,52.269 L152.703,52.269 L152.703,55.932 C152.703,56.559 152.824,57.098 153.286,57.56 C153.605,57.879 154.067,58.066 154.639,58.066 C155.167,58.066 155.695,57.868 156.069,57.472 L156.069,58 L157.466,58 Z" id="te-st.ru" fill="#5D5D5D" sketch:type="MSShapeGroup"></path>
        </g>
    </g>
</svg>