<?xml version="1.0" encoding="utf-8"?>
<!-- Generator: Adobe Illustrator 16.0.4, SVG Export Plug-In . SVG Version: 6.00 Build 0)  -->
<!DOCTYPE svg PUBLIC "-//W3C//DTD SVG 1.1//EN" "http://www.w3.org/Graphics/SVG/1.1/DTD/svg11.dtd">
<svg version="1.1" id="Layer_1" xmlns="http://www.w3.org/2000/svg" xmlns:xlink="http://www.w3.org/1999/xlink" x="0px" y="0px"
	 viewBox="200 290 630 160" enable-background="new 0 0 1024 768" xml:space="preserve">
<g>
	<g>
		<path d="M216.682,401.918H239.3c0,0.135,0.937,11.912,16.328,11.912c8.298,0,15.792-4.953,15.792-10.307
			c0-11.107-20.209-11.91-25.964-13.115c-10.171-2.008-27.436-6.558-27.436-23.02c0-15.391,16.461-27.971,36.537-27.971
			c24.492,0,36.537,12.447,36.537,24.09h-21.547c0-2.141-3.614-6.691-14.989-6.691c-7.629,0-13.919,4.684-13.919,10.572
			c0,7.094,13.517,7.094,18.335,7.896c12.179,2.275,35.064,5.22,35.064,28.239c0,14.99-17.666,27.57-38.411,27.57
			C228.995,431.094,216.682,413.695,216.682,401.918z"/>
		<path d="M405.793,341.826v86.992h-20.878v-44.433l-20.477,44.433h-9.101l-20.075-44.031v44.031H314.25v-86.992h21.012v0.401
			l24.625,48.851l25.027-49.252v0.134v-0.134H405.793z"/>
		<path d="M515.809,385.457c0,25.295-20.476,45.771-45.771,45.771c-25.428,0-45.905-20.477-45.905-45.771
			c0-25.295,20.477-45.906,45.905-45.906C495.333,339.551,515.809,360.162,515.809,385.457z M495.734,385.457
			c0-14.187-11.51-25.831-25.696-25.831c-14.32,0-25.83,11.644-25.83,25.831c0,14.186,11.51,25.695,25.83,25.695
			C484.224,411.152,495.734,399.643,495.734,385.457z"/>
		<path d="M623.686,385.457c0,25.295-20.477,45.771-45.771,45.771c-25.43,0-45.906-20.477-45.906-45.771
			c0-25.295,20.477-45.906,45.906-45.906C603.209,339.551,623.686,360.162,623.686,385.457z M603.609,385.457
			c0-14.187-11.51-25.831-25.695-25.831c-14.32,0-25.83,11.644-25.83,25.831c0,14.186,11.51,25.695,25.83,25.695
			C592.1,411.152,603.609,399.643,603.609,385.457z"/>
		<path d="M714.43,360.563h-33.057v68.255h-20.879v-68.255h-33.057v-18.737h86.992V360.563z"/>
		<path d="M809.857,341.826v86.992h-20.879v-31.852h-38.01v31.852h-20.877v-86.992h20.877v36.403h38.01v-36.403H809.857z"/>
	</g>
	<g>
		<path d="M465.339,295.817c7.376,7.376,14.754,14.753,14.754,14.753l-14.754,14.754V295.817z"/>
		<path d="M439.519,295.816c7.377,7.377,14.754,14.754,14.754,14.754l-14.754,14.753V295.816z"/>
		<path d="M491.157,295.817c7.377,7.376,14.754,14.753,14.754,14.753l-14.754,14.754V295.817z"/>
	</g>
</g>
</svg>
