<?xml version="1.0" encoding="UTF-8"?><!DOCTYPE svg PUBLIC "-//W3C//DTD SVG 1.1//EN" "http://www.w3.org/Graphics/SVG/1.1/DTD/svg11.dtd"><svg xmlns="http://www.w3.org/2000/svg" xmlns:xlink="http://www.w3.org/1999/xlink" version="1.1" width="24" height="24" viewBox="0 0 24.00 24.00"><path d="M19 11C19 12.1895 18.6641 13.3045 18.0951 14.2765L16.8661 13.0475C17.1431 12.4325 17.3001 11.7435 17.3001 11L19 11ZM15 11.1648L9 5.18282L9 5C9 3.3418 10.3435 2 12 2C13.6555 2 15 3.3418 15 5L15 11L15 11.1648ZM4.27299 3L21 19.727L19.727 21L15.541 16.813C14.766 17.267 13.906 17.583 13 17.717L13 21L11 21L11 17.717C7.72099 17.233 5 14.414 5 11L6.70101 11C6.70101 14 9.238 16.099 12 16.099C12.81 16.099 13.598 15.914 14.311 15.583L12.651 13.924L12 14C10.344 14 9 12.656 9 11L9 10.281L3 4.27299L4.27299 3Z" /></svg>