<?xml version="1.0" encoding="UTF-8"?><!DOCTYPE svg PUBLIC "-//W3C//DTD SVG 1.1//EN" "http://www.w3.org/Graphics/SVG/1.1/DTD/svg11.dtd"><svg xmlns="http://www.w3.org/2000/svg" xmlns:xlink="http://www.w3.org/1999/xlink" version="1.1" width="24" height="24" viewBox="0 0 24.00 24.00"><path d="M14.12 10L19 10L19 8.2L15.38 8.2L13.38 4.87C13.08 4.37 12.54 4.03 11.92 4.03C11.74 4.03 11.58 4.06 11.42 4.11L6 5.8L6 11L7.8 11L7.8 7.33L9.91 6.67L6 22L7.8 22L10.67 13.89L13 17L13 22L14.8 22L14.8 15.59L12.31 11.05L13.04 8.18M14 3.8C15 3.8 15.8 3 15.8 2C15.8 1 15 0.2 14 0.2C13 0.2 12.2 1 12.2 2C12.2 3 13 3.8 14 3.8Z" /></svg>