<?xml version="1.0" standalone="no"?>
<!DOCTYPE svg PUBLIC "-//W3C//DTD SVG 20010904//EN"
 "http://www.w3.org/TR/2001/REC-SVG-20010904/DTD/svg10.dtd">
<svg version="1.0" xmlns="http://www.w3.org/2000/svg"
 width="330.000000pt" height="330.000000pt" viewBox="0 0 330.000000 330.000000"
 preserveAspectRatio="xMidYMid meet">
<metadata>
Created by potrace 1.11, written by Peter Selinger 2001-2013
</metadata>
<g transform="translate(0.000000,330.000000) scale(0.100000,-0.100000)"
fill="#000000" stroke="none">
<path d="M1040 2690 l0 -295 147 148 148 147 -148 147 -147 148 0 -295z"/>
<path d="M1550 2690 c0 -159 3 -290 8 -290 4 0 72 65 152 145 l145 145 -145
145 c-80 80 -148 145 -152 145 -5 0 -8 -130 -8 -290z"/>
<path d="M2070 2692 c0 -160 3 -292 8 -292 4 0 71 64 150 143 l142 142 -150
150 -150 150 0 -293z"/>
<path d="M1460 2091 c-349 -74 -617 -339 -707 -699 -26 -102 -23 -322 6 -427
45 -167 136 -321 259 -436 184 -174 379 -252 632 -252 267 0 493 98 673 292
108 117 180 251 219 407 31 123 30 323 -1 439 -92 344 -365 606 -706 676 -114
24 -262 23 -375 0z m342 -411 c171 -53 311 -205 347 -378 77 -371 -251 -693
-618 -607 -181 43 -329 186 -376 366 -19 71 -19 190 0 264 42 161 170 296 335
352 87 30 221 31 312 3z"/>
</g>
</svg>
